# xmcd
#
# Track frame offsets:
#	150
#	25275
#	41368
#	68597
#	86032
#	100426
#	116298
#	135549
#	160261
#	176124
#	192542
#	209221
#	226078
#	244545
#	262133
#	313659
#
# Disc length: 4414
#
# Revision: 2
# Processed by: cddbd v1.5.1PL0 Copyright (c) Steve Scherf et al.
# Submitted via: CDex 1.51
# Normalized: r1:TDELIM( - )
#
DISCID=e2113c10
DTITLE=Blues Paradise - Good Whiskey Blues Vol.18
DYEAR=2003
DGENRE=Blues
TTITLE0=Lamon Cranston Blues Band - Don't Wanna Know
TTITLE1=Nick Woodland - Just A Little Bit
TTITLE2=Climax Blues Band - Fool For The Bright Lights
TTITLE3=Don Nix - Goin' Down The Road To Memphis
TTITLE4=Eric Burdon - Wicked  Man
TTITLE5=De Luxe Blues Band - Southern Contry Boy
TTITLE6=Sammuel Eddy - Down And Out
TTITLE7=Peter Haycock - Black Jack And Me
TTITLE8=Don Nix - Out On The Road Again
TTITLE9=Nick Woodland - Wayfarning Strange
TTITLE10=Lamon Cranston Blues Band - Gold Winds
TTITLE11=De Luxe Blues Band - You Are My Best Poker Hand
TTITLE12=Eric Burdon - Devil's Daughter
TTITLE13=Peter Haycock - Communication
TTITLE14=Climax Blues Band - So Many Roads
TTITLE15=Mike Morgan and Jim Suhler - I Just Want To Get To Khow You
EXTD=YEAR: 2003
EXTT0=
EXTT1=
EXTT2=
EXTT3=
EXTT4=
EXTT5=
EXTT6=
EXTT7=
EXTT8=
EXTT9=
EXTT10=
EXTT11=
EXTT12=
EXTT13=
EXTT14=
EXTT15=
PLAYORDER=
